<svg width="512" height="512" viewBox="0 0 512 512" fill="none" xmlns="http://www.w3.org/2000/svg">
  <rect width="512" height="512" rx="112" fill="#111827"/>

  <rect x="116" y="84" width="280" height="344" rx="36" fill="#F9FAFB"/>
  <path d="M332 84H360C379.882 84 396 100.118 396 120V148L332 84Z" fill="#E5E7EB"/>

  <rect x="156" y="166" width="200" height="18" rx="9" fill="#D1D5DB"/>
  <rect x="156" y="214" width="160" height="18" rx="9" fill="#D1D5DB"/>
  <rect x="156" y="262" width="190" height="18" rx="9" fill="#D1D5DB"/>

  <path
    d="M170 348V306H190V321H222V306H242V348H222V333H190V348H170Z"
    fill="#111827"
  />

  <circle cx="356" cy="348" r="28" fill="#FACC15"/>
  <path d="M344 348L353 357L370 337" stroke="#111827" stroke-width="8" stroke-linecap="round" stroke-linejoin="round"/>
</svg>